<svg xmlns="http://www.w3.org/2000/svg" width="320" height="6" viewBox="0 0 320 6" fill="none">
<path d="M319.99 2.81844C320.109 2.58924 319.094 2.73171 318.602 2.68215C318.341 2.52419 318.087 2.36623 317.825 2.20827C318.021 1.22333 317.333 0.876437 315.763 1.16758C315.525 1.149 315.295 1.13351 315.057 1.11493C314.169 0.960064 313.478 1.05918 312.955 1.36891C311.186 1.38439 310.314 0.213618 308.109 0.808297C307.038 1.06227 306.276 0.820686 305.404 0.597681C303.984 0.238396 303.699 0.591487 303.754 1.07157C303.58 1.06847 303.405 1.07776 303.231 1.09944C301.787 0.535736 300.375 0.365385 299.027 1.1428C299.162 0.129991 297.861 0.170256 296.116 0.535736C295.918 0.535736 295.743 0.563611 295.585 0.610071C294.165 0.54193 292.816 -0.29124 291.302 0.545028C291.079 0.526444 290.873 0.545027 290.691 0.591487C290.088 0.390163 289.43 0.253883 288.597 0.303439C287.003 -0.198321 285.622 -0.0403595 284.377 0.517152C283.481 0.458304 282.37 0.510957 281.728 0.318926C279.84 -0.238586 279.618 0.377774 279.063 0.8052C277.818 -0.281948 276.612 0.47379 275.399 0.817589C274.851 0.216715 274.669 0.198132 273.487 0.603876C273.368 0.665822 273.289 0.737059 273.249 0.817589C272.456 1.0344 271.758 1.16139 271.813 0.585292C270.87 0.0122944 269.236 0.0091971 267.729 0.576L267.673 0.551222C266.523 0.610071 265.159 0.312731 264.318 0.867145C261.923 1.01891 259.821 -0.00628935 257.314 0.597681C256.458 0.328218 255.601 0.0556564 254.435 0.362288C253.563 0.0587537 252.682 -0.182835 251.691 0.297245C251.445 0.309634 251.191 0.322023 250.945 0.334412C250.525 0.312731 250.096 0.29105 249.676 0.269369C247.646 -0.068235 245.686 -0.204516 244.037 0.566709C243.307 0.616265 242.665 -0.046554 241.871 0.529541C239.746 -0.0589432 238.215 0.733962 236.406 0.891924C235.685 0.799005 235.272 0.414942 234.305 0.545028C232.924 -0.0806242 232.464 0.281758 232.203 0.845464C231.227 0.83927 231.275 0.219813 230.125 0.315828C228.871 -0.220002 228.34 0.287953 227.658 0.576C227.356 0.449012 226.777 0.272466 226.611 0.408747C226.381 0.600779 226.611 0.876437 226.643 1.11803C225.754 1.00033 224.961 0.6906 223.906 0.922896C222.145 0.411844 221.685 1.00962 221.035 1.43705C220.353 1.42156 219.671 1.40607 218.988 1.38749C218.806 1.02201 219.79 0.510957 218.267 0.315828C216.926 0.145478 217.997 0.901215 216.958 0.888826C216.244 0.848561 215.625 0.414942 214.808 0.814491C213.238 0.461401 213.016 0.966258 212.596 1.34722C209.677 0.950772 206.75 0.576 203.665 1.11493C202.53 1.07776 201.341 0.136186 200.27 1.149C200.222 1.21714 200.183 1.28838 200.159 1.35961C199.001 1.29147 197.819 0.743254 196.716 1.39678C195.376 1.09634 194.408 1.57333 193.242 1.64456C193.1 1.30077 192.386 1.41227 191.854 1.3751C190.744 0.275564 188.991 1.38749 187.619 1.18926L186.286 1.15829C185.033 1.36271 183.915 0.62246 182.622 1.07466C182.416 1.05298 182.249 1.07466 182.106 1.13351C180.71 1.17997 179.291 0.340607 177.926 1.15519C176.491 0.885729 175.951 1.38129 175.142 1.65386V1.66005C173.58 1.00652 171.486 0.870242 166.774 1.10873C164.395 0.35919 162.626 1.39988 160.508 1.43085C159.406 1.18307 158.295 1.05298 157.129 1.36891C157.01 1.04369 157.106 0.668919 155.837 0.647238C154.758 0.628654 154.956 0.891924 155.059 1.1428C154.798 1.43395 154.179 1.39368 153.592 1.38129C152.537 0.925994 151.823 1.00343 151.427 1.58881C150.911 1.61979 150.729 1.2574 150.102 1.41536C149.015 1.1521 147.881 0.969356 146.572 1.1428C145.073 1.00343 143.765 1.29767 142.392 1.43395C142.622 1.69412 142.86 1.95429 143.098 2.21446C142.86 1.95429 142.63 1.69412 142.392 1.43395C140.179 0.910507 133.414 1.04989 131.28 1.66624C131.074 1.12422 130.265 0.919799 129.21 1.30077C128.163 1.67863 126.926 1.6012 125.768 1.722C124.649 1.35652 123.888 1.80253 122.976 1.90783L122.936 1.92951C121.413 1.49899 119.732 1.58881 118.042 1.69722C116.511 1.39059 116.242 2.57685 114.6 2.14013C113.68 1.41227 112.363 1.722 111.086 1.93571C108.794 1.39368 106.383 1.69412 104.003 1.78394C104.011 1.74058 104.051 1.69412 104.027 1.65386C104.011 1.62288 103.876 1.57333 103.86 1.57642C102.877 1.81801 101.885 2.04411 100.64 1.91403C98.7206 1.4866 97.2533 1.64456 96.2777 2.43127C97.4991 2.6326 98.7206 2.83082 99.9342 3.03215C98.7127 2.83082 97.4912 2.6326 96.2777 2.43127L95.9604 2.43747C95.7383 1.11493 93.8902 1.67554 92.2801 1.95429C91.598 1.93261 90.9079 1.91093 90.2258 1.89235C88.9726 1.36581 87.8939 1.93571 86.7359 1.97907C86.5138 1.9512 86.2917 1.93261 86.0617 1.92332C84.1105 1.31935 82.2148 1.85208 80.2954 1.96668C79.1928 1.40298 78.0983 1.65076 77.0037 1.97288C74.6639 1.66315 72.332 1.38439 69.9366 1.89544C69.5004 1.90164 69.0641 1.91093 68.6279 1.91713C68.3979 1.92642 68.1678 1.93261 67.9378 1.9419C67.1367 1.87996 66.4467 1.9481 65.8676 2.18039C65.1855 2.09057 64.662 1.77775 63.7896 1.9481C63.2819 1.95429 62.7822 1.96049 62.2746 1.96358C61.3783 1.9419 60.4979 1.9512 59.7127 2.16181C59.5937 2.24544 59.4113 2.27951 59.1654 2.26402C59.5778 2.87728 59.3637 3.18701 58.5626 3.21179C59.3557 3.18701 59.5699 2.87728 59.1575 2.26402C59.4033 2.27951 59.5858 2.24544 59.7047 2.16181C57.6663 1.36271 55.8103 1.89235 53.9305 2.2826C52.828 1.39368 51.4875 2.71932 50.3374 2.22376C49.1874 1.1428 47.26 1.87067 45.626 1.91713C45.396 1.93571 45.1739 1.95429 44.9439 1.97288C43.1434 2.50871 41.7712 1.69722 40.1294 1.73439C38.9952 1.77775 37.853 1.82111 36.7188 1.86137C35.2831 1.30077 34.5138 1.70651 33.7761 2.16801C33.5858 2.19278 33.3875 2.19588 33.1892 2.18039C33.5382 1.31625 32.1025 1.6043 31.0159 1.66934C30.0958 1.51138 29.731 1.96049 28.9616 1.96049C27.9701 2.08438 28.3033 1.00962 26.8042 1.5981C24.7578 1.5981 22.7194 1.88925 20.6651 1.61049C20.5223 1.47421 20.4906 1.27908 19.8878 1.38749C18.9836 1.36891 18.0793 1.35032 17.1831 1.33174C15.6126 0.876437 13.8438 1.20475 12.1703 1.1428C11.9482 1.10873 11.7261 1.11493 11.5199 1.16139C10.3698 1.20785 9.2752 0.504763 8.07751 1.12112H8.06165C6.61809 1.10254 5.119 0.978648 3.89752 1.42466C2.58087 1.46802 3.32644 2.01314 2.64432 2.21137C2.37464 2.44057 2.72364 2.81224 1.89874 2.90516C-1.79741 3.3202 0.891423 4.03567 1.74804 4.3361C3.42162 4.92459 4.92071 5.63077 8.02992 5.38609C9.66385 5.256 11.7023 4.99583 13.598 5.20954C15.9775 4.88123 18.3252 5.01751 20.6413 5.30556C24.5595 5.79183 28.4619 5.8228 32.3564 5.27149C32.8719 5.59051 33.7841 5.42325 34.4662 5.53476C35.878 6.06129 36.0446 5.46352 36.5601 5.18166C36.3618 5.1414 36.1556 5.11352 35.9335 5.09494C35.299 4.58389 34.3313 4.54362 33.3161 4.58079C34.3313 4.54362 35.299 4.58699 35.9335 5.09494C36.1556 5.11352 36.3618 5.1414 36.5601 5.18166V5.15069C37.972 5.76705 39.5187 6.09846 41.4619 5.46352C43.778 6.1666 46.094 5.42016 48.418 5.46971C52.2966 6.0489 56.31 5.66484 60.26 5.72369C61.18 5.91882 62.108 6.19138 63.0519 5.73918C63.6389 5.52237 64.321 5.41086 65.1379 5.44493C65.3045 5.72988 65.9232 5.7144 66.4705 5.75156C67.6919 6.07368 68.7627 6.17899 69.3021 5.46661C70 5.45113 70.6901 5.43564 71.3881 5.42016C71.8402 5.52856 72.3002 5.63697 72.7523 5.74227C74.1166 6.36793 74.6956 5.59051 75.6633 5.49449L75.5919 5.479C76.2899 5.53166 76.7975 5.85997 77.6462 5.69272C78.5266 5.84448 78.249 4.75424 79.7163 5.42325C80.9616 5.99315 82.5004 5.7113 83.936 5.47591C85.3478 5.81971 86.5296 5.65555 87.6004 5.22812C88.235 5.28078 88.8774 5.33653 89.512 5.38918C89.4088 5.30865 89.385 5.22503 89.4406 5.1352C90.4479 4.70158 91.4314 4.56221 92.3832 4.74185C91.4235 4.56221 90.4479 4.69849 89.4406 5.1352C89.385 5.22193 89.4009 5.30865 89.512 5.38918C90.7255 5.97147 92.1056 6.0551 93.9775 5.8228C94.9134 5.7082 95.8414 5.50378 97.0708 5.52856C99.1886 5.57192 101.275 5.91262 103.432 5.69272C105.082 5.77634 106.081 4.81309 107.731 5.18476C111.689 6.08297 115.536 5.79183 119.43 5.18786C119.47 5.34582 119.502 5.50068 119.541 5.65865C120.945 5.16928 123.103 5.89094 124.387 5.20335C125.212 5.12282 126.045 5.04229 126.87 4.96176C128.869 5.64935 130.884 5.81661 132.906 4.97724C133.525 4.86574 134.143 4.75424 134.77 4.64274C135.896 5.69272 137.142 5.32724 138.403 4.6861C138.522 4.69539 138.641 4.70468 138.768 4.70778C139.029 4.67371 139.283 4.64274 139.545 4.60867C139.529 4.5684 139.489 4.52814 139.45 4.48787C139.497 4.52814 139.537 4.5715 139.553 4.60867C139.291 4.64274 139.037 4.67371 138.776 4.70778C140.219 5.26219 142.02 5.20954 143.828 5.16308C144.978 5.07016 146.136 4.97724 147.286 4.88123C148.341 4.97105 149.404 5.08875 150.261 4.69539C153.06 4.36398 155.773 4.49097 158.422 4.93698C160.302 5.52237 160.231 4.53433 161.23 4.40425C162.658 4.36708 163.776 5.09184 165.362 4.65203C167.924 4.73565 170.486 4.81618 173.04 4.89981C173.738 5.29936 174.428 5.23122 175.134 4.89981C176.657 4.51265 178.474 5.00822 180.004 4.64893C181.154 4.76353 182.289 5.24051 183.47 4.67371C183.938 4.64583 184.398 4.62106 184.866 4.59318C186.175 4.83477 187.611 5.44493 188.46 4.39805C188.848 4.47239 189.229 4.54672 189.618 4.62106C190.395 4.71397 191.172 4.80689 191.949 4.89981C193.171 5.00822 194.21 4.2246 195.876 4.93078C196.423 5.15998 200.198 5.45732 201.586 4.39495C202.039 4.40425 202.491 4.41354 202.943 4.41973C204.339 4.58079 205.743 4.74185 207.139 4.90291C209.661 4.70778 212.5 5.26839 214.753 4.42283C215.189 4.63035 215.911 4.54053 216.268 4.59008C217.941 4.82857 219.195 3.72904 219.853 4.17814C221.178 5.07636 222.407 4.50336 223.74 4.40115C225.413 4.73256 227.055 4.18744 228.721 4.37327C231.751 4.77592 234.677 3.60205 237.723 4.28965C239.143 4.44761 240.571 4.37637 241.998 4.31752C244.56 4.70468 246.9 3.44409 249.502 4.16885C249.525 4.12549 249.549 4.07903 249.573 4.03567C252.151 4.49097 254.673 4.46619 257.116 3.8839C257.941 4.35469 258.798 4.73875 260.011 4.02638C259.71 3.83434 259.361 3.7724 258.996 3.7662C259.361 3.7693 259.71 3.83125 260.011 4.02638C260.257 4.02638 260.511 4.02638 260.757 4.02638C260.987 4.05115 261.209 4.07593 261.439 4.10071C262.517 4.54672 263.747 4.04806 264.873 4.18744C266.174 4.66442 266.499 4.08213 267.158 3.86532C267.348 3.8901 267.53 3.8808 267.697 3.83434L267.633 3.86532C268.569 4.43832 270.1 3.77859 271.147 4.12549C273.122 4.37637 275.137 4.74495 276.787 3.87771C279.927 4.42593 283.211 3.84364 286.392 4.05115C287.367 4.15337 288.343 4.25248 289.319 4.35469C290.604 4.22151 291.746 3.7662 293.245 4.28655C293.792 4.47858 294.665 4.18434 294.95 3.85293C295.83 3.76311 296.766 4.04186 297.615 3.78789C298.971 4.50646 300.708 4.36398 302.485 4.1131C303.746 4.46 305.031 4.72946 306.594 4.38876C307.752 5.02061 308.981 4.66132 310.195 4.42593C310.377 4.39186 310.575 4.37947 310.782 4.38566C311.678 5.11352 313.241 4.36398 314.351 4.63344C315.342 5.54714 316.905 4.6799 318.15 4.81928C318.007 4.67061 317.865 4.52194 317.722 4.37637C317.722 4.07284 318.055 3.94894 318.88 3.87151C320.292 3.74143 319.776 3.17153 319.959 2.80914L319.99 2.81844ZM15.1367 1.65695C15.0415 1.61359 14.9305 1.57952 14.8115 1.55474C14.9305 1.57952 15.0336 1.61359 15.1367 1.65695ZM29.6279 2.44676C30.3576 2.37552 31.0794 2.30429 31.8091 2.23615C31.0794 2.30738 30.3576 2.37862 29.6279 2.44986V2.44676ZM34.4741 2.48393C34.4582 2.57685 34.4424 2.67286 34.4344 2.76578C34.4503 2.67286 34.4662 2.57685 34.482 2.48393C34.5614 2.43437 34.6565 2.39101 34.7517 2.35694C34.6486 2.39101 34.5614 2.43127 34.482 2.48393H34.4741ZM39.36 2.24853C39.1855 2.23924 39.011 2.23924 38.8286 2.24853C38.7017 2.44057 38.5351 2.61092 38.2892 2.73791C38.5431 2.60782 38.7096 2.44057 38.8286 2.24853C39.0031 2.23924 39.1776 2.24234 39.36 2.24853C39.4155 2.52729 39.6931 2.7472 40.1928 2.91135C39.7011 2.7472 39.4155 2.52729 39.36 2.24853ZM68.6199 2.19278C69.0086 2.20208 69.3338 2.23305 69.6035 2.2826C69.3338 2.23615 69.0165 2.20517 68.6199 2.19278ZM74.2594 4.65822C74.1562 4.63344 74.0531 4.61176 73.95 4.59318C74.0531 4.61176 74.1642 4.63344 74.2594 4.65822ZM70.8011 3.33568C70.5632 3.41002 70.3252 3.48435 70.0794 3.55869C70.3173 3.48435 70.5553 3.41002 70.7932 3.33568C71.9433 3.25515 73.1569 3.32639 74.3228 3.28303C73.1569 3.32949 71.9512 3.25825 70.7932 3.33878L70.8011 3.33568ZM79.7957 2.26402C79.9702 2.16801 80.1446 2.07509 80.3112 1.97907C80.1367 2.07509 79.9622 2.16801 79.7957 2.26402ZM85.3399 2.1711C84.8878 2.27951 84.4436 2.38791 83.9915 2.49322C84.4436 2.38482 84.8957 2.27951 85.3399 2.1711ZM84.0788 5.07326C84.1977 4.88123 84.0708 4.65822 83.8249 4.59628C84.0629 4.65822 84.1977 4.88123 84.0788 5.07326ZM89.5358 3.02595C89.0598 3.14055 88.5681 3.20869 88.0763 3.25206C88.576 3.20869 89.0598 3.14055 89.5358 3.02595C90.9317 3.05693 92.3198 3.16843 93.7078 3.27374C92.3198 3.17153 90.9397 3.06002 89.5358 3.02595ZM111.118 2.75339C110.943 2.91445 110.737 3.02595 110.507 3.10029C110.737 3.02595 110.943 2.91135 111.118 2.75029V2.75339ZM123.007 3.03525C122.563 3.28303 122.143 3.28303 121.722 3.20869C122.143 3.28303 122.563 3.27993 123.007 3.03525ZM136.856 2.76578C136.412 2.88658 135.968 2.8587 135.524 2.81224C135.968 2.8587 136.404 2.88658 136.856 2.76578ZM144.55 4.64583C144.621 4.62725 144.708 4.60867 144.788 4.59318C144.701 4.61176 144.621 4.62725 144.55 4.64583ZM145.391 4.47858C145.597 4.43832 145.787 4.39805 145.93 4.34849C145.787 4.39805 145.589 4.43832 145.391 4.47858ZM149.348 2.45915C148.944 2.31977 148.571 2.15871 148.143 2.04411C148.571 2.15871 148.944 2.32287 149.348 2.45915ZM152.743 1.7189C152.957 1.63217 153.14 1.52996 153.37 1.44943C153.148 1.52996 152.957 1.63217 152.743 1.7189ZM160.945 1.86757C161.04 1.90474 161.159 1.93881 161.301 1.96668C161.159 1.93881 161.048 1.90474 160.945 1.86757ZM171.668 2.50871C171.898 2.77198 172.128 3.03215 172.366 3.29542C172.136 3.03215 171.906 2.77198 171.676 2.50871H171.668ZM178.656 1.68483C178.196 1.88305 177.752 1.97907 177.3 2.00075C177.744 1.97907 178.196 1.88305 178.656 1.68483C179.465 1.68483 180.322 1.73129 181.02 1.61979C180.322 1.73129 179.473 1.68793 178.656 1.68483ZM186.849 2.23924L185.564 2.46844C185.993 2.39101 186.421 2.31667 186.857 2.23924C187.135 2.31977 187.405 2.3972 187.682 2.47773C187.405 2.4003 187.127 2.31977 186.857 2.23924H186.849ZM193.266 2.26712C191.902 2.46534 190.585 2.84012 189.15 2.7472C190.585 2.84012 191.902 2.46844 193.266 2.26712ZM200.888 2.45296C200.888 2.27951 200.896 2.10606 200.904 1.92951C200.904 2.10296 200.896 2.27641 200.888 2.45296ZM207.226 2.23305C208.725 2.31048 210.224 2.4034 211.723 2.41579C210.224 2.4065 208.725 2.31358 207.226 2.23615V2.23305ZM228.046 1.92642C226.674 1.83969 225.302 1.75297 223.93 1.66934C225.302 1.75607 226.674 1.84279 228.046 1.92642C228.078 1.87686 228.142 1.8273 228.197 1.77775C228.134 1.8273 228.078 1.87996 228.046 1.92951V1.92642ZM230.894 1.49899C231.14 1.47112 231.378 1.44324 231.624 1.41846C231.378 1.44634 231.14 1.47421 230.894 1.49899C230.64 1.93261 230.156 2.13084 229.474 2.13084C230.156 2.13084 230.64 1.92951 230.894 1.49899ZM235.034 3.53701C232.837 3.22418 230.688 3.21179 228.507 3.36975C230.696 3.21179 232.837 3.22418 235.034 3.53701ZM237.802 3.83125C238.262 3.85293 238.738 3.84054 239.222 3.83125C238.746 3.83744 238.262 3.84983 237.802 3.83125ZM244.108 1.42775C243.363 1.73748 242.553 1.78394 241.721 1.75607C242.553 1.78394 243.37 1.73439 244.108 1.42775ZM255.197 1.92951C254.967 1.8335 254.729 1.76536 254.499 1.7158C254.729 1.76226 254.967 1.8335 255.197 1.92951ZM264.286 1.92022C263.112 1.44634 261.938 2.13703 260.773 1.92022C259.123 1.92022 257.473 1.92642 255.815 1.92951C257.465 1.92642 259.115 1.92332 260.773 1.92022C261.946 2.13703 263.12 1.44634 264.294 1.92022H264.286ZM267.959 1.68173C268.308 1.59191 268.657 1.50209 269.006 1.41536C268.657 1.50519 268.308 1.59501 267.959 1.68173ZM277.524 1.41846C276.35 1.78704 275.636 1.81182 275.137 1.67554C275.644 1.81182 276.358 1.78704 277.524 1.41846C278.294 1.33793 279.071 1.51138 279.84 1.62908C279.063 1.51138 278.286 1.33793 277.524 1.41846ZM304.627 2.19588C304.635 2.01004 304.65 1.82421 304.658 1.63527C304.65 1.82111 304.635 2.00695 304.627 2.19588ZM308.085 2.19588C308.577 2.05031 309.124 1.8335 309.671 1.76846C309.124 1.8304 308.577 2.05031 308.085 2.19588ZM312.289 3.84054C311.805 3.7755 311.321 3.71045 310.829 3.64231C311.321 3.70736 311.805 3.7724 312.289 3.84054ZM315.2 2.48393C314.938 2.4065 314.684 2.32287 314.438 2.23305C314.644 2.22066 314.843 2.20208 315.033 2.1773C315.295 2.00385 315.382 1.86757 315.263 1.77465C315.382 1.87067 315.295 2.00695 315.033 2.18039C314.843 2.20517 314.644 2.22376 314.438 2.23615C314.692 2.32597 314.946 2.40959 315.2 2.48703V2.48393Z" fill="#EFB438"/>
</svg>